<?xml version="1.0" encoding="utf-8"?>
<svg viewBox="0 0 500 500" xmlns="http://www.w3.org/2000/svg">
  <defs>
    <radialGradient gradientUnits="userSpaceOnUse" cx="253.369" cy="239.365" r="118.409" id="gradient-1" gradientTransform="matrix(0.932054, 0, 0, 1.625437, 17.215485, -149.707672)">
      <stop offset="0" style="stop-color: rgb(255, 150, 30);"/>
      <stop offset="1" style="stop-color: rgb(242, 74, 1);"/>
    </radialGradient>
  </defs>
  <g transform="matrix(1.187221, 0, 0, 1.187221, -50.80502, -34.179757)" style="">
    <path style="fill-rule: nonzero; fill: url(#gradient-1); stroke-width: 8px; stroke: rgb(134, 36, 0);" d="M 253.369 431.039 C 218.398 431.039 193.093 426.306 168.366 391.66 C 143.639 357.014 133.276 260.853 135.181 209.668 C 137.086 158.483 152.785 108.297 157.171 101.806 C 161.557 95.315 166.287 93.774 170.687 97.106 C 175.087 100.438 189.332 113.871 194.61 119.458 C 199.888 125.045 203.253 127.979 206.536 123.694 C 209.819 119.409 219.988 82.482 225.405 71.534 C 230.822 60.586 239.28 47.692 253.369 47.692 C 267.458 47.692 275.596 60.337 281.333 71.534 C 287.07 82.731 296.919 119.409 300.202 123.694 C 303.485 127.979 306.85 125.045 312.128 119.458 C 317.406 113.871 331.651 100.438 336.051 97.106 C 340.451 93.774 345.181 95.315 349.567 101.806 C 353.953 108.297 369.652 158.483 371.557 209.668 C 373.462 260.853 363.099 357.014 338.372 391.66 C 313.645 426.306 288.34 431.039 253.369 431.039 Z"/>
    <rect x="243.395" y="261.025" width="18.998" height="128.353" rx="6" ry="6" style="paint-order: fill; fill: rgb(167, 56, 0); stroke-width: 4px; stroke: rgba(140, 54, 0, 0);"/>
    <rect x="285.23" y="260.32" width="18.998" height="128.353" rx="6" ry="6" style="paint-order: fill; fill: rgb(167, 56, 0); stroke-width: 4px; stroke: rgba(140, 54, 0, 0);"/>
    <rect x="201.56" y="261.205" width="18.998" height="128.353" rx="6" ry="6" style="paint-order: fill; fill: rgb(167, 56, 0); stroke-width: 4px; stroke: rgba(140, 54, 0, 0);"/>
  </g>
</svg>